<svg xmlns="http://www.w3.org/2000/svg" viewBox="0 0 1611.96 1575.68"><defs><style>.cls-1,.cls-13,.cls-3{fill:#01529d;}.cls-1{stroke:#fff;stroke-linecap:round;stroke-width:10px;}.cls-1,.cls-10,.cls-12,.cls-13,.cls-14,.cls-15,.cls-16,.cls-5,.cls-7{stroke-miterlimit:10;}.cls-16,.cls-2{fill:#d64563;}.cls-14,.cls-4{fill:#418940;}.cls-5{fill:#fff;stroke:#030202;}.cls-5,.cls-7{stroke-width:3px;}.cls-12,.cls-6{fill:#231f20;}.cls-7{fill:#c6c4c4;}.cls-12,.cls-7{stroke:#231f20;}.cls-8{fill:#e5e3e3;}.cls-9{fill:#8c8b8b;}.cls-10{fill:#58595b;stroke:#58595b;stroke-width:2px;}.cls-11{fill:#030202;}.cls-12,.cls-13,.cls-14,.cls-15,.cls-16{stroke-width:9px;}.cls-13{stroke:#01529d;}.cls-14{stroke:#418940;}.cls-15{fill:#7f7f7f;stroke:#7f7f7f;}.cls-16{stroke:#d64563;}</style></defs><g id="Layer_2" data-name="Layer 2"><g id="Splash"><path class="cls-1" d="M256.71,1388.43c2.37,15.44-15,11.11-9.8,29.39C262.53,1423.21,272.3,1383,256.71,1388.43Z"/><path class="cls-1" d="M339.77,1310.17c-28.88,11.83-55.37,26-73.26,48.89C292.07,1369,336.31,1312.83,339.77,1310.17Z"/><path class="cls-1" d="M1549.82,727.33c-36.08-5.93-94.55,6.1-122.46,24.49C1468.22,739.71,1524.26,741.87,1549.82,727.33Z"/><path class="cls-1" d="M657.64,455.54c-5.08,10.84-11.37,18.92-18.54,24.78a347.73,347.73,0,0,0,45.51,24.07c55.76,24.23,129.86,33,180.92-7,46.87-36.67,55.72-102.23,51.17-157.83-.39-4.79-.9-9.58-1.5-14.36-3.88-5.87-8.88-10.62-22.45-6.81-4.17,37.59,15.5,105.33-44.09,88.15C744.63,301.63,657.52,179.79,623.34,5,480.52,5,687.79,317.2,657.64,455.54Z"/><path class="cls-1" d="M1484.24,621c17.14-3,39.57-2,36.74-20C1507.48,593,1489.63,609.47,1484.24,621Z"/><path class="cls-1" d="M501.62,1437.42c-21.7,48.48-74.77,65.63-83.27,127.32,38.78-28.16,57.57-76.31,88.18-112.65C505.74,1446.34,507.36,1438.2,501.62,1437.42Z"/><path class="cls-1" d="M1069.79,61.34c-6.26-.27-6.77-6.3-14.7-4.92-18.25,34-23.32,81.13-34.25,122.43C1049.6,152.11,1051.34,98.37,1069.79,61.34Z"/><path class="cls-1" d="M1525.33,1212.16c17.66,19.87,43.84,31.22,78.37,34.27C1591.62,1220.92,1549.41,1225.63,1525.33,1212.16Z"/><path class="cls-1" d="M381.83,427.1q10.05,2.31,20.14,4.42c6.89,1.44,14.13,2.3,20.86,4.36,4.8,1.47,9.52,3.17,14.27,4.76,12.29,4.1,28.52,10,41.08,5.46-10.53-6-19.13-11.45-26.05-17.11a11.1,11.1,0,0,0-4.38-.37,19.09,19.09,0,0,1,.76-2.77c-13.93-12.72-20-27.43-21.09-53.58-83.5-19.48-120.09-111.53-205.72-112.62C253.51,337,317.41,382.33,381.83,427.1Z"/><path class="cls-1" d="M1470.73,788.53a24.8,24.8,0,0,1-14.7-14.68c-36.76-5.75-49,13.06-83.27,9.78-2.9-15.62,9.19-15.15,0-24.48-19.4,7.28-28.26,13.25-34.27-9.79,7.66-18.46,45.66-6.57,49-29.39-52.36,11.2-110.13,17.07-117.46-34.59a100,100,0,0,1-21.8-9.07c-15.67-9-26.57-23.66-29.92-41.5-2.17-11.55-2-23.67-1.54-35.36a288.11,288.11,0,0,1,3.54-35.18q.68-4.14,1.46-8.26-2.79,1.23-5.7,2.36c8.11-8.7,7.11-35.88-9.8-34.28-24.24,3.71,2.49,39.11-4.91,39.18-28.57-3-12-35.47-19.57-53.88-10.77-26.14-37.61-41.32-19.6-83.25,11.38-6.58,27.8-8.1,39.17-14.68-6.29-28,28.2-73.46-14.69-78.34-12.61,6.95-7.33,31.81-24.48,34.26-29.63-69.74-5.27-130.91-19.59-205.69-69.14-56.44-64.35,58.56-102.86,78.37,0-25.12,6.28-22.17,9.79-49-31.84,9-1.24,80.36-39.18,83.24C997,241.94,993.54,199.68,951.52,196c-15,40.39,28.43,65.74,24.51,97.95,53.1-23.13-8.46,55.64-49,44.06a4.62,4.62,0,0,1-.47-.19c.75,8.86,1.16,17.74,1.18,26.61.13,58.63-18.58,122.48-73.43,152.18-60.77,32.92-136,17.34-194.35-12.91q-15.36-8-30-17.37c-40.46,21.25-101.45-12.11-141.31-34.3-.16.12-.3.25-.46.36-17.49,12.57-43.49,1.38-61.35-4.66a190.19,190.19,0,0,0-24.07-6c35.33,24.81,69.78,50.5,98.06,82.35-.42,31.54,13.59,74.46,0,102.84-36-19.49-79.71-31.3-112.64-53.86,25.77,39.5,88.17,42.4,117.54,78.33-100,69.42-269.67,28.36-362.46-19.57-3.5-13.3,23.11,3.48,19.61-9.81-30.94-11.42-34.88,18.55-68.59,24.5-.75,5.73.85,13.89-4.88,14.69,26.84,84.15,178.74,43.3,240,93-12.08-.66-23.59-.74-29.38,4.9,1.16,34.2,1.13,40.51,14.69,63.66-58.85,29.3-85.19,91.12-142,122.44,10.31,10,40.58-10.51,49,9.77-20.2,38-71.83,67.18-83.27,97.94-40.69,19.72-91.82,29-122.44,58.79,73.37-15.93,185.56-57.89,230.2-102.85,27.25,7.05,57.92-5.94,68.58,24.49-9.16-3.92-17.93-8.19-29.4-9.8-6.35,12.14,10.95,23.79,0,24.5-31.25-.08-17.6,23.61-34.27,4.87-8.38,23,21.45,30.62,45,39.66a56.64,56.64,0,0,1,9.65-12.69c30.17,26.58,70.53-11.27,98,0a46.59,46.59,0,0,1-6.21,11.68c20-6.48,40.17-13.07,59.37-19.06,37.9-11.83,100.57-33.39,107.77,19.6,5.46,40.37-40.47,37.92-53.89,73.47,17.55,14.83,31.41-29.57,49-14.7-8,60.57-57.09,105.17-102.85,142-66.06,53.13-152.67,106-132.25,200.74,24.58,8.85,49.7,11.9,78.37,4.93,30.51-45.27,84-83.33,122.45-132.22,30.28-38.5,44.89-94.69,93.05-93.05-10.46,17.28-26.21,29.29-29.38,53.87,44.89-6.13,48.55-94.84,98-112.64,13.35,43.5-45.72,54.93-44.09,102.84,47.91-15.76,43-84.36,88.17-102.84,23.28,33.83,55.47,58.8,73.47,97.94-7.85,62.4-10.15,126.62-14.7,191,34.38-31,3-127.64,44.09-151.83-2.27,43.08-3.82,85.44,39.19,83.29,29.33-8.25,22.31-52.81,29.39-83.29,23.8-15.87,44.44-17.77,73.48-19.6,12.47-25.89,20-68.79,49-63.64,2.93-30.6-4.12-40.73,14.71-53.87,36.56,3.35,52.51,27.34,67.82,52,12.45-1.71,25.37-1.89,37.8-2.11,29.82-.53,59.66,0,89.46,1.44-25.14-70.43-79.18-160.93-4.06-178.62,55.91-13.18,55.8,24.88,98,34.3a40.76,40.76,0,0,0,19.58-19.6c33,7.78,52.76,28.88,93.07,29.37-10.34-17.51-32.95-48.54-53.89-39.17,6-1.5,16.89,14.15,4.9,14.7-18.65-7.16-77.23-16.55-44.08-44.06,17.92-3,22.78,32.32,39.18,14.66q-18.87-5.6-24.48-24.49c12.36-12.09,37.41-11.57,58.78-14.67-2.84-80.68,131.46-31.93,142-88.16C1576.69,881.51,1413.92,896.29,1470.73,788.53ZM330.18,1031c4.94-11.38,16.88-15.77,34.3-14.69C355.63,1023.74,349.47,1033.9,330.18,1031Zm63.68-53.86c.61,10.82,20.79,2.08,29.39,4.88-17.05,22.14-57.83,20.55-88.17,29.38-5.43-9.24-6.25-23.13-9.8-34.26,23.46-18,81.42-61,112.67-24.49C429.46,967,415,975.34,393.86,977.09Zm4.9-63.67c-17.11-20.43-31.6-43.5-63.68-49-5.06-82.05,95-64.4,93.06,4.89,8,11.56,25.22,13.95,34.31,24.49C456.4,915.54,408.47,895.37,398.76,913.42Z"/><path class="cls-1" d="M1358.07,450.63c-52.06,22.83-76.81,73-125,99.73a280.37,280.37,0,0,0-6.06,43c-1.17,19.68-2.61,42.62,9.35,59.53,7.83,11.08,20.1,17.57,32.84,21.74a116.1,116.1,0,0,1,.69-13.41c73.64-38.16,111.15-112.58,176.33-151.82,32.19-19.37,67.18-40.06,68.57-83.25C1465.5,361.55,1424.37,457.45,1358.07,450.63Z"/><path class="cls-1" d="M1289.52,1327.22c-10-11.22-32.51-10-44.1-19.6-.9-9.56-3.54-20.24-7.19-31.59-34.14-1.67-68.34-2.28-102.51-1.39-7.47.19-15,.35-22.5,1,1.59,2.52,3.19,5,4.84,7.47,67.82,30.13,103.91,92,151.84,142,12.78,42.77,28.93,82.1,68.59,98C1327.37,1444.83,1278.55,1402.69,1289.52,1327.22Z"/><path class="cls-1" d="M340,609.81c-24.24-14.94-46-32.33-73.47-44.09C278.49,587.2,336.66,612.06,340,609.81Z"/><path class="cls-1" d="M516.32,1432.52c17.47-5.37,19.16-26.56,29.38-39.16C528.21,1398.72,526.55,1419.91,516.32,1432.52Z"/><path class="cls-1" d="M188.14,516.75c10.54,28.65,36.57,41.81,68.57,49C241.77,541.48,216.54,527.55,188.14,516.75Z"/><path class="cls-1" d="M290.17,1109.78c-9.26,2.77-17.3,6.78-19.49,16.64,5.87-.78,12.39-2,19.41-3.49A45.68,45.68,0,0,1,290.17,1109.78Z"/><path class="cls-2" d="M1207.37,579.82c1.77,16.28,3,32.73,5.63,48.89a55.59,55.59,0,0,0,8.6,22.48c1.91,2.74,4.07,5.35,6.16,7.94l1,1.27q2.67,3.27-1.13-1.49c.19-.48,2.14,6.59.79.88-1.21-5.12-1.63-8.91,1-13.88-6.52,12.23-3.49,29.39,9.5,36.26,12.29,6.49,29.3,3.56,36.26-9.51a39.39,39.39,0,0,0-.91-39.13,60.52,60.52,0,0,0-9.09-11.87c4.82,4.82,1.59,1.72.36,0-2.86-4,1.67,5.59-.09-.53-.46-1.6-.82-3.22-1.12-4.86-1.25-6.75.42,5-.1-.41-.36-3.74-.82-7.48-1.22-11.21l-2.7-24.83c-.79-7.23-2.43-13.41-7.76-18.73-4.6-4.6-12.14-8.06-18.74-7.77-13.07.59-28.11,11.74-26.5,26.5Z"/><path class="cls-1" d="M295.89,1138.69c30.56-19,80.62-18.47,101.56-47.08-39.23,12.71-77.84,25-107.36,31.32A37.93,37.93,0,0,0,295.89,1138.69Z"/><path class="cls-1" d="M296.05,1092.62a50.76,50.76,0,0,0-5.88,17.16c8.32-2.5,17.63-4,24.6-7.83C310,1098.36,303.34,1095.42,296.05,1092.62Z"/><path class="cls-2" d="M1140.57,1285.07c5.83-1.32-6.44,1-.65.22,4.51-.6-4.34-1-1.45-.29s5.91,1.46,8.84,2.36a98.57,98.57,0,0,0,23.6,4.62c1.58.09,3.17.06,4.75.1.94,0,1.89,0,2.84.09l-3.51-.54c2.82,1.28,6.66,1.68,9.66,2.66,6.45,2.11,12.9,4.26,19.35,6.38,13.17,4.35,29.53-5,32.6-18.5,3.32-14.59-4.41-28-18.51-32.6-7-2.31-13.94-4.66-20.94-6.91-8.53-2.73-17.32-3.57-26.24-3.68-5.51-.06,5.44,1.58.23,0-1.61-.48-3.27-.81-4.88-1.27-3.24-.94-6.43-2-9.69-2.91a61.33,61.33,0,0,0-30.09-.87c-13.54,3.06-22.77,19.42-18.51,32.6,4.59,14.18,18.1,21.79,32.6,18.51Z"/><path class="cls-1" d="M477.13,428.62c-6-6.5-23.72-16.38-28.62-2.77,1.15,1.06,2.35,2.11,3.62,3.14C460.91,431.21,472.94,440.29,477.13,428.62Z"/><path class="cls-3" d="M1069.79,61.34c-6.26-.27-6.77-6.3-14.7-4.92-18.25,34-23.32,81.13-34.25,122.43C1049.6,152.11,1051.34,98.37,1069.79,61.34Z"/><path class="cls-4" d="M471.31,462.78a63.35,63.35,0,0,1,11.35.44c6.49.92,10.67-7,4.62-11l-8.91-5.82-6.06,10.36,4.83,2.5c.84.44,3.3,2.21,4.3,2.3q4.92-4.08,1.88-5.21a9.62,9.62,0,0,1-1.69-.93,11,11,0,0,1-3.25-2.68c-3.9-4.94-5.66-9.72-12.88-9.91a6,6,0,0,0-5.78,7.59c.84,3,1.7,6.06,2.59,9.08l10-5.84c-5.82-4.63-11.56-8.78-18.72-11.11-7.4-2.41-15-3.48-22.15-6.65-15.72-6.94-31.13-14.69-46.66-22.05-5.69-2.7-12.88,4.74-7.27,9.42a177.38,177.38,0,0,0,85.74,39.32c7.55,1.2,10.8-10.36,3.19-11.57A166,166,0,0,1,386,414.82l-7.28,9.42c15,7.12,30,14.41,45.09,21.34a108.54,108.54,0,0,0,20.06,6.82,48.26,48.26,0,0,1,20,9.77c4.35,3.47,11.87.44,10-5.83-.89-3-1.75-6-2.59-9.08l-5.79,7.6c.88,0,2.78,4.37,3.44,5.24a22.08,22.08,0,0,0,6,5.33c4,2.53,9.14,4.57,13.71,2.29A8.66,8.66,0,0,0,492.21,456c-2.59-5-9.22-7.16-13.84-9.55-6.87-3.57-12.53,6.12-6.06,10.36l8.91,5.83,4.63-11a80.4,80.4,0,0,0-14.54-.87c-7.7.31-7.74,12.31,0,12Z"/><path class="cls-3" d="M1470.73,788.53a24.8,24.8,0,0,1-14.7-14.68c-36.76-5.75-49,13.06-83.27,9.78-2.9-15.62,9.19-15.15,0-24.48-19.4,7.28-28.26,13.25-34.27-9.79,7.66-18.46,45.66-6.57,49-29.39-52.36,11.2-110.13,17.07-117.46-34.59a100,100,0,0,1-21.8-9.07c-15.67-9-26.57-23.66-29.92-41.5-2.17-11.55-2-23.67-1.54-35.36a288.11,288.11,0,0,1,3.54-35.18q.68-4.14,1.46-8.26-2.79,1.23-5.7,2.36c8.11-8.7,7.11-35.88-9.8-34.28-24.24,3.71,2.49,39.11-4.91,39.18-28.57-3-12-35.47-19.57-53.88-10.77-26.14-37.61-41.32-19.6-83.25,11.38-6.58,27.8-8.1,39.17-14.68-6.29-28,28.2-73.46-14.69-78.34-12.61,6.95-7.33,31.81-24.48,34.26-29.63-69.74-5.27-130.91-19.59-205.69-69.14-56.44-64.35,58.56-102.86,78.37,0-25.12,6.28-22.17,9.79-49-31.84,9-1.24,80.36-39.18,83.24C997,241.94,993.54,199.68,951.52,196c-15,40.39,28.43,65.74,24.51,97.95,53.1-23.13-8.46,55.64-49,44.06a4.62,4.62,0,0,1-.47-.19c.75,8.86,1.16,17.74,1.18,26.61.13,58.63-18.58,122.48-73.43,152.18-60.77,32.92-136,17.34-194.35-12.91q-15.36-8-30-17.37c-40.46,21.25-101.45-12.11-141.31-34.3-.16.12-.3.25-.46.36-17.49,12.57-43.49,1.38-61.35-4.66a190.19,190.19,0,0,0-24.07-6c35.33,24.81,69.78,50.5,98.06,82.35-.42,31.54,13.59,74.46,0,102.84-36-19.49-79.71-31.3-112.64-53.86,25.77,39.5,88.17,42.4,117.54,78.33-100,69.42-269.67,28.36-362.46-19.57-3.5-13.3,23.11,3.48,19.61-9.81-30.94-11.42-34.88,18.55-68.59,24.5-.75,5.73.85,13.89-4.88,14.69,26.84,84.15,178.74,43.3,240,93-12.08-.66-23.59-.74-29.38,4.9,1.16,34.2,1.13,40.51,14.69,63.66-58.85,29.3-85.19,91.12-142,122.44,10.31,10,40.58-10.51,49,9.77-20.2,38-71.83,67.18-83.27,97.94-40.69,19.72-91.82,29-122.44,58.79,73.37-15.93,185.56-57.89,230.2-102.85,27.25,7.05,57.92-5.94,68.58,24.49-9.16-3.92-17.93-8.19-29.4-9.8-6.35,12.14,10.95,23.79,0,24.5-31.25-.08-17.6,23.61-34.27,4.87-8.38,23,21.45,30.62,45,39.66a56.64,56.64,0,0,1,9.65-12.69c30.17,26.58,70.53-11.27,98,0a46.59,46.59,0,0,1-6.21,11.68c20-6.48,40.17-13.07,59.37-19.06,37.9-11.83,100.57-33.39,107.77,19.6,5.46,40.37-40.47,37.92-53.89,73.47,17.55,14.83,31.41-29.57,49-14.7-3.5,26.55-14.91,50-30.47,71.15a187,187,0,0,1,33.94-1.72c31.33,1.5,56.16,18.8,74.58,43.35q1.35,1.8,2.65,3.65c11.58-22.62,24.54-44.8,46.66-52.77,9.82,32-19.55,46.64-35.11,71.22,3.7,6.7,7.06,13.61,10.12,20.65,28.51-25.14,31-76.3,69.07-91.87,23.28,33.83,55.47,58.8,73.47,97.94-7.85,62.4-10.15,126.62-14.7,191,34.38-31,3-127.64,44.09-151.83-2.27,43.08-3.82,85.44,39.19,83.29,29.33-8.25,22.31-52.81,29.39-83.29,23.8-15.87,44.44-17.77,73.48-19.6,12.47-25.89,20-68.79,49-63.64,2.93-30.6-4.12-40.73,14.71-53.87,36.56,3.35,52.51,27.34,67.82,52,12.45-1.71,25.37-1.89,37.8-2.11,29.82-.53,59.66,0,89.46,1.44-25.14-70.43-79.18-160.93-4.06-178.62,55.91-13.18,55.8,24.88,98,34.3a40.76,40.76,0,0,0,19.58-19.6c33,7.78,52.76,28.88,93.07,29.37-10.34-17.51-32.95-48.54-53.89-39.17,6-1.5,16.89,14.15,4.9,14.7-18.65-7.16-77.23-16.55-44.08-44.06,17.92-3,22.78,32.32,39.18,14.66q-18.87-5.6-24.48-24.49c12.36-12.09,37.41-11.57,58.78-14.67-2.84-80.68,131.46-31.93,142-88.16C1576.69,881.51,1413.92,896.29,1470.73,788.53ZM330.18,1031c4.94-11.38,16.88-15.77,34.3-14.69C355.63,1023.74,349.47,1033.9,330.18,1031Zm63.68-53.86c.61,10.82,20.79,2.08,29.39,4.88-17.05,22.14-57.83,20.55-88.17,29.38-5.43-9.24-6.25-23.13-9.8-34.26,23.46-18,81.42-61,112.67-24.49C429.46,967,415,975.34,393.86,977.09Zm4.9-63.67c-17.11-20.43-31.6-43.5-63.68-49-5.06-82.05,95-64.4,93.06,4.89,8,11.56,25.22,13.95,34.31,24.49C456.4,915.54,408.47,895.37,398.76,913.42Z"/><path class="cls-3" d="M818.19,533.83c8.18,1.69,15.67-1,21.82-6.53,5-4.52,8.52-10.53,13.89-14.75C864.42,504.3,878,501,888.76,493.14c12.34-9,18.21-22.12,22.42-36.43,4.79-16.29,9.21-32.65,11.46-49.51h-15a110.33,110.33,0,0,1-13.33,44.22c-8.06,14.65-19.47,25.11-31.06,36.84a95.76,95.76,0,0,0-14.26,19c-1.7,2.85-3.34,5.44-6.37,7-3.65,1.84-8.1,2.46-12,3.44l-56.83,14.15c-9.36,2.33-5.39,16.78,4,14.46a81.23,81.23,0,0,0,51.65-40c2.6-4.83-.6-11.47-6.48-11.28-30.58,1-61.32,1.95-91.79-1.52-14.83-1.69-29.24-6.1-44.06-7.54s-29.24,3-43.93,3.48c-9.73.35-9.57,14.3,0,15,7.91.58,14,8.87,19.88,13.34,7.41,5.63,16.2,9.21,25.51,6.53,6-1.74,7.58-10.57,1.79-13.71a28.86,28.86,0,0,1-11.79-11.49l-8.47,11,43.25,17.32c8.11,3.25,12.77-9.42,5.78-13.71-10.54-6.46-21.25-12.6-32.26-18.22l-5.78,13.71a113.91,113.91,0,0,1,41,14.73l3.79-14c-12.1-1-23.23-7.59-34.4-11.83a214.58,214.58,0,0,0-37.16-10.3c-9.44-1.74-13.48,12.71-4,14.46a213.83,213.83,0,0,1,38.92,11c12.13,4.74,23.44,10.59,36.63,11.69,7.7.63,9.81-10.38,3.79-14A125.27,125.27,0,0,0,685,494.71c-3.74-.59-7.29.65-8.85,4.35-1.37,3.25-.27,7.66,3.07,9.36,11,5.62,21.72,11.76,32.26,18.23l5.78-13.71L674,495.62c-6.36-2.55-11.45,5.79-8.47,11a43.55,43.55,0,0,0,17.18,16.87l1.8-13.71c-7.76,2.24-14.48-5.71-19.77-10.21-6.44-5.45-13-9.56-21.64-10.19v15c14.66-.52,29.22-5,43.93-3.48,7.11.75,14.08,2.77,21.09,4.11,7.61,1.45,15.28,2.55,23,3.43,30.47,3.47,61.21,2.5,91.79,1.52l-6.48-11.29a66.37,66.37,0,0,1-42.68,33.11l4,14.46c20.55-5.11,41.12-10.12,61.64-15.34,8.9-2.27,15.78-5.79,21-13.58,4.71-7,8.56-13.61,14.67-19.65,12.58-12.45,24.56-24.31,33-40.12a128.74,128.74,0,0,0,14.6-50.36c.33-4-3.68-7.5-7.5-7.5-4.5,0-7,3.47-7.5,7.5-2,14.66-6.16,29-10.24,43.17-3.33,11.57-7.12,23.39-17.39,30.66-9.45,6.69-20.77,10.09-30.48,16.35a60.67,60.67,0,0,0-13.71,12.26c-3.1,3.69-7.92,10.91-13.64,9.73-9.43-2-13.45,12.5-4,14.46Z"/><path class="cls-3" d="M733.49,537.76a25.91,25.91,0,0,1,2.1-14.4l-14-3.78a52.89,52.89,0,0,1-.55,13.3c-1.46,8.1,9.05,13.39,13.71,5.78a57.12,57.12,0,0,1,20.72-20.13c1.28-.72,4.45-2.83,5.45-2.58s3.19,3.74,4.06,4.86a113.12,113.12,0,0,1,9.55,14.89L781,524.41a45.23,45.23,0,0,1-27.06-6l-5.78,13.71a185.43,185.43,0,0,1,40,11.55l2-14.73a635.63,635.63,0,0,1-66.49-.24l2,14.73A447.64,447.64,0,0,1,817.93,537c8.31.27,10.4-13.08,2-14.73a134.24,134.24,0,0,0-34.64-2.42l2,14.73a722.33,722.33,0,0,0,98-29.26L878,492.77c-10.47,12.32-25.61,18.52-40.17,24.67-16.73,7-34.22,14.36-52.47,16-18.85,1.75-37.25-3.25-55.92-4.8-8.41-.69-17-.18-25.35-1.66-8.56-1.52-14.8-5.59-21.06-11.45-6.49-6.06-12.74-12.29-21-15.78-8.6-3.61-18.45-4.11-26.48,1.2l10.27,10.26a53.75,53.75,0,0,1,16.79-16.8c8.19-5.2,1-17.29-7.57-12.95l-27.33,13.77L637.88,498c.75,1.36-.19.44.84-.47.65-.58,1.35-1.54,1.91-2.12a54.79,54.79,0,0,1,4.46-4,89.47,89.47,0,0,1,10.52-7.17c7.65-4.62,15.56-8.88,23.56-12.87,16.38-8.17,33.66-14.75,51.79-17.75,18.93-3.12,38.31-1.59,57.4-2.17,19.45-.6,38.45-4.16,57.28-8.91,21.41-5.4,42.59-11.66,63.53-18.64l-9.49-7.23c.79,6.67.6,14.67,2.79,21a10.48,10.48,0,0,0,15.31,5.78c5.49-3.22,7.29-9.35,8.71-15.1q2.76-11.16,4.74-22.49c2.55-14.56,4.58-29.52,4.9-44.32.28-13.28-5.46-26.37-20-27.95-3.06-.34-6.63,2.55-7.24,5.5-1.89,9.19,1.46,16.69,3.65,25.43,2.14,8.56.46,17.47-1.34,25.93a378.1,378.1,0,0,1-11.81,44.28c-9.95,28.93-26.29,54.29-53.57,69.38-16.06,8.88-33.72,14.27-51.17,19.64-9.2,2.84-5.28,17.32,4,14.47,32-9.84,65-21,87.23-47.46,20.69-24.65,30.59-56.05,37.71-86.92,2.3-10,4.89-20.22,4.95-30.51a53.67,53.67,0,0,0-2.23-15.37c-1.39-4.71-4-9.87-2.93-14.88l-7.23,5.51c5.65.61,5,11,4.9,14.62-.33,8.2-1.13,16.42-2.16,24.56s-2.44,16.36-4.12,24.45q-1.17,5.63-2.53,11.21c-.45,1.84-.79,3.78-1.41,5.57-.32.92-1,1.34-.7,1.3h4c1.88.45,2.64,4,2.18.17l-.54-4.61-1.1-9.22c-.54-4.52-4.4-8.93-9.49-7.24-39.78,13.26-81.32,26.64-123.57,27.15-21,.26-42-.48-62.61,4.13-19.45,4.35-38,12.53-55.48,21.87-9.32,5-18.69,10.08-27,16.61-8,6.24-17.5,15.63-11.57,26.41,2,3.71,6.72,4.48,10.26,2.69l27.33-13.77L655,481.51a71,71,0,0,0-22.18,22.18c-3.94,6.22,4,14.4,10.27,10.26,13.35-8.83,28.26,12.23,37.44,19.11,14.7,11,32.59,9.17,49.86,10.71,19.29,1.72,38.18,6.73,57.67,4.44,18.26-2.15,35.35-8.58,52.2-15.65,17.38-7.29,35.82-14.44,48.36-29.18,4.35-5.12.37-15.43-7.3-12.54a723.33,723.33,0,0,1-98,29.26c-8.16,1.82-6.5,15.27,2,14.73a118.89,118.89,0,0,1,30.65,1.88l2-14.73a467.46,467.46,0,0,0-96.17,7c-8.71,1.53-6,14.28,2,14.73a635.63,635.63,0,0,0,66.49.24c8.91-.43,9.59-11.57,2-14.73a184.46,184.46,0,0,0-40.05-11.55c-8-1.36-13.59,9.14-5.78,13.7A59.11,59.11,0,0,0,781,539.41c5.66-.45,9.35-6,6.48-11.28a117.16,117.16,0,0,0-14-20.57c-5.41-6.22-12.14-8.05-19.79-4.81-13.32,5.62-24.38,16.11-31.86,28.34l13.71,5.78a69.16,69.16,0,0,0,1.08-17.29c-.48-6.68-10.61-11.15-14-3.79a44.16,44.16,0,0,0-3.61,26c.6,4,5.67,6.24,9.23,5.24,4.29-1.2,5.84-5.19,5.24-9.22Z"/><path class="cls-4" d="M339.77,1310.17c-28.88,11.83-55.37,26-73.26,48.89C292.07,1369,336.31,1312.83,339.77,1310.17Z"/><path class="cls-4" d="M516.32,1432.52c17.47-5.37,19.16-26.56,29.38-39.16C528.21,1398.72,526.55,1419.91,516.32,1432.52Z"/><path class="cls-4" d="M623,1261.27c-8.87-10.1-19.3-18.76-31.56-24.42-16.83-7.78-35.95-7.53-54-5.72-5.77.58-11.5,1.4-17.2,2.37-18.61,22.21-41.38,41.73-63.38,59.45-66.06,53.13-152.67,106-132.25,200.74,24.58,8.85,49.7,11.9,78.37,4.93,30.51-45.27,84-83.33,122.45-132.22,30.28-38.5,44.89-94.69,93.05-93.05-10.46,17.28-26.21,29.29-29.38,53.87,21.81-3,33.89-25.45,46.21-49.81A151.81,151.81,0,0,0,623,1261.27Z"/><path class="cls-3" d="M1549.82,727.33c-36.08-5.93-94.55,6.1-122.46,24.49C1468.22,739.71,1524.26,741.87,1549.82,727.33Z"/><path class="cls-2" d="M1484.24,621c17.14-3,39.57-2,36.74-20C1507.48,593,1489.63,609.47,1484.24,621Z"/><path class="cls-4" d="M256.71,1388.43c2.37,15.44-15,11.11-9.8,29.39C262.53,1423.21,272.3,1383,256.71,1388.43Z"/><path class="cls-4" d="M501.62,1437.42c-21.7,48.48-74.77,65.63-83.27,127.32,38.78-28.16,57.57-76.31,88.18-112.65C505.74,1446.34,507.36,1438.2,501.62,1437.42Z"/><path class="cls-2" d="M657.64,455.54c-5.08,10.84-11.37,18.92-18.54,24.78a347.73,347.73,0,0,0,45.51,24.07c55.76,24.23,129.86,33,180.92-7,46.87-36.67,55.72-102.23,51.17-157.83-.39-4.79-.9-9.58-1.5-14.36-3.88-5.87-8.88-10.62-22.45-6.81-4.17,37.59,15.5,105.33-44.09,88.15C744.63,301.63,657.52,179.79,623.34,5,480.52,5,687.79,317.2,657.64,455.54Z"/><path class="cls-2" d="M1358.07,450.63c-52.06,22.83-76.81,73-125,99.73a280.37,280.37,0,0,0-6.06,43c-1.17,19.68-2.61,42.62,9.35,59.53,7.83,11.08,20.1,17.57,32.84,21.74a116.1,116.1,0,0,1,.69-13.41c73.64-38.16,111.15-112.58,176.33-151.82,32.19-19.37,67.18-40.06,68.57-83.25C1465.5,361.55,1424.37,457.45,1358.07,450.63Z"/><path class="cls-4" d="M381.83,427.1q10.05,2.31,20.14,4.42c6.89,1.44,14.13,2.3,20.86,4.36,4.8,1.47,9.52,3.17,14.27,4.76,12.29,4.1,28.52,10,41.08,5.46-10.53-6-19.13-11.45-26.05-17.11a11.1,11.1,0,0,0-4.38-.37,19.09,19.09,0,0,1,.76-2.77c-13.93-12.72-20-27.43-21.09-53.58-83.5-19.48-120.09-111.53-205.72-112.62C253.51,337,317.41,382.33,381.83,427.1Z"/><path class="cls-2" d="M1289.52,1327.22c-10-11.22-32.51-10-44.1-19.6-.9-9.56-3.54-20.24-7.19-31.59-34.14-1.67-68.34-2.28-102.51-1.39-7.47.19-15,.35-22.5,1,1.59,2.52,3.19,5,4.84,7.47,67.82,30.13,103.91,92,151.84,142,12.78,42.77,28.93,82.1,68.59,98C1327.37,1444.83,1278.55,1402.69,1289.52,1327.22Z"/><path class="cls-3" d="M340,609.81c-24.24-14.94-46-32.33-73.47-44.09C278.49,587.2,336.66,612.06,340,609.81Z"/><path class="cls-3" d="M188.14,516.75c10.54,28.65,36.57,41.81,68.57,49C241.77,541.48,216.54,527.55,188.14,516.75Z"/><path class="cls-3" d="M1525.33,1212.16c17.66,19.87,43.84,31.22,78.37,34.27C1591.62,1220.92,1549.41,1225.63,1525.33,1212.16Z"/><path class="cls-3" d="M646.41,1296.61a52.08,52.08,0,0,0-3.47,20.81,53.68,53.68,0,0,0,10.81-4.92C651.49,1307.12,649.05,1301.81,646.41,1296.61Z"/><path class="cls-3" d="M290.17,1109.78c-9.26,2.77-17.3,6.78-19.49,16.64,5.87-.78,12.39-2,19.41-3.49A45.68,45.68,0,0,1,290.17,1109.78Z"/><path class="cls-3" d="M477.13,428.62c-6-6.5-23.72-16.38-28.62-2.77,1.15,1.06,2.35,2.11,3.62,3.14C460.91,431.21,472.94,440.29,477.13,428.62Z"/><path class="cls-3" d="M295.89,1138.69c30.56-19,80.62-18.47,101.56-47.08-39.23,12.71-77.84,25-107.36,31.32A37.93,37.93,0,0,0,295.89,1138.69Z"/><path class="cls-3" d="M296.05,1092.62a50.76,50.76,0,0,0-5.88,17.16c8.32-2.5,17.63-4,24.6-7.83C310,1098.36,303.34,1095.42,296.05,1092.62Z"/><polyline class="cls-3" points="339.98 778.3 459.89 833.21 453.62 868.8 402.39 954.43 330.18 999.17 289.65 1004.89 186.1 978.3 127.52 904.77 157.18 883.42 271.58 824.1"/><path class="cls-2" d="M1213.94,1270.26c-23.5-13.62-46.71-27.64-69.42-42.55-13.58-8.92-35.73-.52-38.93,15.84l-.46,2.35c-1.85,9.48-.25,18.72,6.82,25.78a26.72,26.72,0,0,0,25.78,6.82c1.43-.39,2.93-.62,4.34-1,3.24-1-5.14.26-1.76.2,2.69-.05,5.33-.28,8-.15.51,0,6.33.68,1.83,0s1.33.32,1.8.41c2.64.55,5.24,1.25,7.81,2.06,2.38.74,5.14,2.37,7.57,2.71-1.36-.19-4.62-2.09-1.4-.56,1.35.63,2.71,1.25,4,1.9,5.11,2.47,10.09,5.2,15.06,8,12.13,6.71,29.47,3.34,36.26-9.51s3.2-28.65-9.51-36.26c-.91-.52-1.8-1.07-2.66-1.67q4.86,3.93,1.66,1.26c-1.49-1.48-3-2.95-4.4-4.47q-2.65-3.22,1.22,1.63c-.61-.86-1.19-1.73-1.76-2.63-1.12-1.78-2.15-3.63-3.09-5.52-.51-1-1-2.07-1.46-3.12q2.17,5.19.6,1.12c-.73-2.38-1.61-4.71-2.31-7.11-1.4-4.79-2.55-9.66-3.7-14.52-2.58-10.85-14.31-20-25.56-19.45-12.28.55-21.5,8-25.55,19.45-7.59,21.5,12.85,34.25,24.82,48,.92,1.06,1.83,2.13,2.72,3.21.53.65,1.06,1.3,1.58,2q1.85,2.33-1.57-2c-.22.33,4.76,6.7,5.33,7.56a159.15,159.15,0,0,1,9.61,16.78c6.18,12.44,24.79,16.9,36.25,9.51,12.73-8.21,16.12-23,9.51-36.26a183.53,183.53,0,0,0-20.61-31.71c-3.29-4.19-6.76-8.24-10.45-12.09q-2.91-3-6-5.9c-.82-.76-1.65-1.51-2.49-2.26-8.21-7.42,6.87,4.67,2.41,17.31H1144.8c6.22,26.22,16,52.16,40.26,66.71l26.75-45.77c-27.09-15-56.79-27.43-88.17-18.85l32.6,32.6.46-2.35-38.93,15.83c22.7,14.91,45.92,28.93,69.42,42.55,12,7,29.55,3.18,36.25-9.51s3.31-28.82-9.5-36.25Z"/><path class="cls-2" d="M1163,1250.57l-.25-52.38-39.87,22.88a169.8,169.8,0,0,0,37.37,18.49v-51.11c-1.11.46-5.67,1.29-1.35.87,4.66-.46-1-.22-1.6-.24-2.62-.11-5.23-.5-7.84-.73a46.47,46.47,0,0,0-18.83,2c-9,3.09-17,8.64-21.85,17a43.78,43.78,0,0,0-4.45,11.43c-.22.88-.46,1.78-.63,2.67-.62,2-.46,1.72.46-.69a13.05,13.05,0,0,1,3.34-5.34l44.29,11.7c-.78-3.67-1.49-7.35-2.09-11-.15-.94-.64-6.35-.33-2s-.19-2.12-.28-3q-.49-5.13-.74-10.28c-.08-1.87-.14-3.75-.17-5.62l0-1.88q.08-5.13-.42,2.78l-12.18,15.84q-16,2.75-8.14,2.58c1.24,0,2.49,0,3.73.1l1.85.11c3,.28,2.47.22-1.54-.2a29.24,29.24,0,0,1,3.55,1l-3.37-1.41c0,.08,5.32,3.42,5.47,3.39l-2.8-2.16c.83.68,1.64,1.37,2.45,2.08,1.2,1.05,2.38,2.12,3.53,3.23a102.89,102.89,0,0,1,7.62,8.14c.52.61,1,1.22,1.52,1.85q1.88,2.32-1.7-2.22c.41,1.46,2.35,3.27,3.21,4.57,1.92,2.87,3.7,5.84,5.33,8.88.88,1.64,1.71,3.31,2.5,5,2.8,6-1.68-4.66.15.26,1.3,3.5,2.48,7,3.48,10.6,3.71,13.35,19,22.93,32.6,18.51s22.48-18.29,18.51-32.6a129.28,129.28,0,0,0-18.61-40c-9.28-13.06-20.87-26.61-35.09-34.51-9.5-5.27-19.76-7.24-30.53-7.56-6.77-.19-13.53.47-19.54,3.91-9.14,5.23-13.75,14.57-14.51,24.73-1.25,16.76,2,34.78,5.46,51.09,4.19,19.59,31,25.48,44.3,11.69a40.87,40.87,0,0,0,10.3-19.36c.21-.86.54-1.78.67-2.66q.61-2-.61,1.29a8,8,0,0,1-2.06,3.58,8.2,8.2,0,0,1-2.93,2.92q-2.85,2-1.09,1c2-1.27-6.41,1.9-1.93,1.09-.72.13-6.53.4-2.89.45.93,0,1.86,0,2.79,0,2.2.1,4.39.43,6.58.63,6.77.64,14.2.34,20.53-2.24,5.55-2.26,10-4.62,13.77-9.5,3.45-4.47,6-10.25,5.69-16-.55-12.36-8-21.4-19.46-25.56-1.36-.49-2.71-1.06-4.09-1.53-3.34-1.15,4.7,2.14,1.49.66-2.64-1.23-5.29-2.42-7.88-3.76a143,143,0,0,1-14.23-8.51c-16.94-11.44-40,3.76-39.88,22.88l.25,52.38c.06,13.86,12.14,27.14,26.5,26.5s26.57-11.65,26.5-26.5Z"/><path class="cls-4" d="M439.6,438.15a16.87,16.87,0,0,0,7.86-.39,6.92,6.92,0,0,0,4.69-3.86,6.11,6.11,0,0,0-2.6-7.73c-2.76-1.48-6.66-.78-8.21,2.16-1.47,2.78-.8,6.62,2.16,8.2l.13.07-3-5.18,0,.17,1.75-4.25c1.5-1.62,2.83-1.39,1.31-1a5.66,5.66,0,0,1-.56.13c-.46.1-.24.07.66-.06a4.34,4.34,0,0,0-1.13.06c-.43,0-1.68-.14.09.1a6.65,6.65,0,0,0-4.63.61A6,6,0,0,0,436,435.4a5.73,5.73,0,0,0,3.59,2.75Z"/></g><g id="Layer_7" data-name="Layer 7"><g id="Sad"><path class="cls-5" d="M1416.11,682.33c-51.6,1.75-145.11-26.22-145.11-26.22-104.17-46.12-126-58.06-157-51.47-22.68,4.82-13.21,108.57-22.11,142s-23.18,46.68-29.84,83.27c-6.63,36.38,11.25,141.61,18.72,165s33.37,77.65,97,89.43,141.62-77,174.2-109.09,57.72-85.92,57.9-107.8,8.95-63.91,36-117.52S1467.7,680.58,1416.11,682.33Zm-154.18,335.11c-41.21-60.43-163-54.72-163-54.72s34.84-72.41,111.55-51.28S1261.93,1017.44,1261.93,1017.44Z"/><path class="cls-6" d="M1112.23,736.52a76.22,76.22,0,0,1,46.09-19c5.58-.32,11.16.54,16.69,1a121.67,121.67,0,0,0,15.51.26c15.74-.78,31.55-4,45.21-12.36-10.19,13.62-28,20-44.47,21.82A90,90,0,0,1,1170,728c-2.51-.3-5.26-.63-7.76-.89-17.11-1-34,3.45-50,9.39Z"/><path class="cls-6" d="M1391.77,820c-10-12.31-21.19-23.9-34.91-31.78-4.57-2.63-9.59-4.47-14.33-6.76a91,91,0,0,1-14.51-8.89c-13.17-10-25.33-24.56-27.14-41.45,5,9.61,12.1,17.41,20.13,24.36a121.3,121.3,0,0,0,19.08,13.37,131.15,131.15,0,0,0,12.13,6.12c18.84,8.36,33.34,25.56,39.55,45Z"/><path class="cls-6" d="M1163.45,851.87c-20.7,8.56-36.53,25.06-48.46,43.52-4.19,6.27-7.57,12.84-11.5,19.33a88.9,88.9,0,0,1,13.18-31.66c10.08-15.4,27.85-29.89,46.78-31.19Z"/><path class="cls-6" d="M1269.9,878.65c20.47,14.51,29,42.74,28.4,66.93a102.73,102.73,0,0,1-4.9,28.74c.53-16,.51-31.64-2.39-47.29-3.31-17.39-9.87-34.52-21.11-48.38Z"/><path class="cls-6" d="M1183.25,863.92c8.85-.62,17.92.34,25.69,5.19,3,2,5.76,5.63,5.57,9.66l-4.07-3.54c10.88-1.92,32.71-3.22,39.16,7.65a8.6,8.6,0,0,1,.79,2.68,9.2,9.2,0,0,0-3.78-3.32,17,17,0,0,0-4.65-1.46c-9.94-1.47-20.39,0-30.3,1.26l-4.44.68.37-4.22a3.32,3.32,0,0,0-.5-2.06c-1.79-2.9-5.17-4.58-8.4-6.26-5-2.39-10.22-4.28-15.44-6.26Z"/><path class="cls-6" d="M1122.45,988.89c36.12-7.69,82,3.14,106.11,32.34-31.51-21.62-68.51-29.66-106.11-32.34Z"/><path class="cls-6" d="M1101,781.37s16.92-13.2,58.06-.81,66.1-22.9,68.29-28.2c0,0-13.22,5.51-49.67,1.62S1111.7,762.08,1101,781.37Z"/><path class="cls-6" d="M1375,863.3s-7.46-20.12-49-31.2-44.21-54.21-43.3-59.86c0,0,8.36,11.63,41.42,27.46S1376,841.25,1375,863.3Z"/></g></g><g id="venstrePils"><g id="Øl_1" data-name="Øl 1"><path class="cls-7" d="M276,410.61s74-77.43,104.83-102.45,128.27-102.54,149.35-118,54.51-37.79,62.09-36.45,11,15.59,10.06,16.38,1.5,9.33,17.93,17.08,52.56,17.75,71.59,30.69,21,10.91,52,49,630.74,772.9,630.74,772.9,24.66,21.36,19,45.84-13.57,40.24-11.75,46.47,11.45,19.09-3.32,36.37-93.66,96-115.41,113.64-122.22,91-147.2,98.69-28.42,6.44-34.3,2.51c-7.12-4.77-21.63-6.25-49.42,1.6-19.14,5.4-64.15-55-64.15-55L335.25,559s-17-28.4-21.4-52.81-6.26-60.64-13.41-69.44-4.76-10.55-8.22-11.81-2.27,2.89-5.43,1S272.37,414.34,276,410.61Z"/><path class="cls-8" d="M516.13,448.22s-89.07-82.42-20.55-100.67S600.09,317.08,621.87,279s46.1,44.19,113.78,79.35,606.71,648.41,601.46,690.1-13.14,117.83-96.83,92.27-112.51-19.15-119.55-78.07S1106.33,820.89,1054.4,824,776.73,775.29,727.59,698.05,555.7,473.9,516.13,448.22Z"/><path class="cls-8" d="M360.78,522.7s-30.73-94.89,16.08-102.08,96.8,24,170.94,163,321.06,268.6,371.88,292.55,147.91,321.44,201.79,315.11,55.14,135.91-17.77,127.71S880.64,1078.1,793.08,1044.11,370.66,578.89,360.78,522.7Z"/><path class="cls-9" d="M1076.44,1350.51c58-26.1,113.19-58.75,163.38-97.77,35.18-27.57,67.84-59.1,94.91-94.74,3.2-4.17,6.78-9.4,9.92-13.63,2.51-3.65,6.94-10.42,9.4-14-3.27,5.85-7.7,14-11.32,19.51-36.13,57.63-88.54,103.62-145.28,140.37-38.08,24.2-78.4,45.29-121,60.29Z"/><path class="cls-9" d="M305.13,413.58c47-55.75,101.56-105.26,158.68-150.43,26.86-21.12,55.67-41.64,84.45-60.2,5.53-3.7,13.82-8.73,19.55-12.19,4.87-2.94,14.86-8.92,19.77-11.81-8.37,5.94-19.86,13.92-28.33,19.73-90.61,64.14-176.18,135.8-254.12,214.9Z"/></g><path class="cls-10" d="M384.59,416.74l-27.31-33.15,4.37-3.6,11.21,13.61L390,379.46l-11.21-13.62,4.36-3.59L410.5,395.4l-4.37,3.6-12.87-15.63-17.17,14.15L389,413.14Z"/><path class="cls-10" d="M427.21,381.64l-11.57-14.05L387.18,359l5.34-4.39,14.73,4.66q4.37,1.38,8,2.83c-.46-2.54-.86-5.48-1.22-8.83l-1.62-15.05,5-4.16L420,364l11.57,14Z"/><path class="cls-10" d="M448.53,364.07l-27.31-33.15,12.41-10.22a19.56,19.56,0,0,1,6.76-3.95,10.9,10.9,0,0,1,6.07,0,10,10,0,0,1,5.11,3.34,9.5,9.5,0,0,1,2.18,5.11,11.15,11.15,0,0,1-1,5.75,11.46,11.46,0,0,1,6.94-.8,10.22,10.22,0,0,1,5.86,3.74,12.16,12.16,0,0,1,2.85,6.51,11.18,11.18,0,0,1-1.27,6.6,24.17,24.17,0,0,1-6,6.69Zm-11.46-22.82,7.15-5.89a22.1,22.1,0,0,0,3.74-3.61,6.54,6.54,0,0,0,1.31-3.76,6,6,0,0,0-1.58-3.8,6.51,6.51,0,0,0-3.29-2.28,5.57,5.57,0,0,0-3.58.2,23.72,23.72,0,0,0-5.37,3.66l-6.63,5.47Zm12.61,15.31,8.23-6.78a18.84,18.84,0,0,0,3.68-3.71,7,7,0,0,0,1.26-4.28A7.27,7.27,0,0,0,461,337.6a6.7,6.7,0,0,0-7.64-2.23,19.62,19.62,0,0,0-5.46,3.49l-7.65,6.31Z"/><path class="cls-10" d="M479.44,338.61l-27.3-33.15,14.64-12.06q4.59-3.78,7.54-4.65a10.21,10.21,0,0,1,6.13.13,11.6,11.6,0,0,1,5.52,3.85,10.51,10.51,0,0,1,2.63,8q-.47,4.29-4.47,8.66a14.4,14.4,0,0,1,4.32-.47,30.69,30.69,0,0,1,6.92,1.4l13.2,4.27-5.5,4.53L493,315.88a54.81,54.81,0,0,0-8.35-2.26,9.54,9.54,0,0,0-4.08.18,12.42,12.42,0,0,0-3.82,2.33l-5.05,4.16L483.81,335Zm-10.88-22.12,9.39-7.74a17.36,17.36,0,0,0,4.17-4.46,6.92,6.92,0,0,0,.95-4,6.68,6.68,0,0,0-1.58-3.82,6.21,6.21,0,0,0-5-2.48c-2,0-4.14,1-6.49,2.94l-10.44,8.6Z"/><path class="cls-10" d="M513.6,310.48l-27.31-33.15,4.37-3.6L518,306.88Z"/><path class="cls-10" d="M525.5,300.68l-27.31-33.15,11.4-9.39a32.93,32.93,0,0,1,6.94-4.69,14.41,14.41,0,0,1,7.38-1.22,18.67,18.67,0,0,1,7.67,2.58,28.52,28.52,0,0,1,7.43,6.62,27,27,0,0,1,5.86,11.2,15.89,15.89,0,0,1-.57,9.81,23.11,23.11,0,0,1-6.88,8.42Zm1.14-7.51,7-5.79c2.84-2.34,4.67-4.5,5.51-6.47a9.8,9.8,0,0,0,.36-6.45,24.66,24.66,0,0,0-5.09-9.37q-4.15-5-8.19-6.55a10.73,10.73,0,0,0-7.45-.34,22.27,22.27,0,0,0-6.11,3.94l-6.93,5.7Z"/><path class="cls-10" d="M555.28,276.15,540.72,232.5l4.67-3.85,40.83,22-5,4.12-12.11-6.87-13.9,11.44,4.68,13Zm-1.73-21.42,11.25-9.27-11-6.35q-5.07-2.93-8-5a53.81,53.81,0,0,1,3.4,7.83Z"/><path class="cls-10" d="M1217.7,1241.1l3.75,5-22.66,17a18,18,0,0,1-3.29-8.17q-.93-5.19.28-14.1,1.42-10.4.81-15a15.65,15.65,0,0,0-2.73-7.45,9.4,9.4,0,0,0-5.82-3.9,7.84,7.84,0,0,0-9.3,7.21q-.23,3.63,2.86,7.75l-4.75,2.69q-4.11-6.45-3.47-11.75a12.77,12.77,0,0,1,5.45-8.9q5.25-3.93,10.63-2.34a16.55,16.55,0,0,1,8.81,6.16,19.43,19.43,0,0,1,3.71,9.35q.68,5.31-.58,15.93c-.56,4.49-.84,7.48-.87,9a20.4,20.4,0,0,0,.35,4.17Z"/><path class="cls-10" d="M1244.32,1221.19l3.76,5-22.67,17a18.22,18.22,0,0,1-3.29-8.17q-.91-5.19.28-14.1c.95-6.93,1.23-11.94.81-15a15.76,15.76,0,0,0-2.72-7.44,9.39,9.39,0,0,0-5.83-3.9,7.46,7.46,0,0,0-6.13,1.4,7.56,7.56,0,0,0-3.17,5.81q-.22,3.62,2.87,7.75l-4.75,2.69q-4.12-6.47-3.48-11.76a12.82,12.82,0,0,1,5.46-8.89q5.25-3.93,10.63-2.35a16.6,16.6,0,0,1,8.8,6.16,19.41,19.41,0,0,1,3.71,9.36c.46,3.54.26,8.85-.57,15.93q-.84,6.74-.87,9a20.52,20.52,0,0,0,.34,4.18Z"/></g><g id="VenstreSmile"><g id="Smile"><path class="cls-5" d="M638.47,727.91c-21.32-33-68.06-134.78-74.78-158.59s-9.54-67.48-68.92-18.26S353.5,650.93,280.69,652.54,188,672.16,198.73,686c0,0,51.89,64.67,57.29,89.8s36.19,110.76,82.7,154.42,105,87.13,147.36,98.87,135.1,12.71,146.71-64.13S659.78,760.92,638.47,727.91ZM554.65,958.62c-62.14,21.43-93.94,14.94-169.71-58.91,0,0,130.56,2.13,213.19-94.85C598.13,804.86,616.79,937.19,554.65,958.62Z"/><path class="cls-11" d="M306.5,817.78s38.23-42.36,115.09-24.13C421.59,793.65,347.08,701,306.5,817.78Z"/><path class="cls-11" d="M488.8,766s11-56,86.24-80C575,686.06,463.44,645,488.8,766Z"/><path class="cls-11" d="M285,743.88c13.61-18,34.54-31.1,57.35-33.41a56.19,56.19,0,0,1,41.93,13.27,59.73,59.73,0,0,1,10.58,11.76,136,136,0,0,0-13.08-8.11c-33.26-18.66-67.72-2.61-96.78,16.49Z"/><path class="cls-11" d="M460.42,708c-1.35-37.47,23.33-79.28,64.69-78a60.19,60.19,0,0,1,15.61,2.52,139,139,0,0,0-15.27,1.89c-37.61,6.34-54.39,40.45-65,73.55Z"/><path class="cls-11" d="M448.34,859.74c7.26-7.64,16.75-13.36,27.5-14.44a20.36,20.36,0,0,1,12,2.51l-6.6,2.59c4.71-15.64,20.68-28.65,37.17-21.39-10.79,1-19.07,6-24.49,15.26a45.39,45.39,0,0,0-3.73,7.64c-.27.61-1.87,5.73-2.13,6.47-2.81-1.63-6.54-4.38-9.93-4.55a19.65,19.65,0,0,0-2-.17c-9.37-.07-18.69,3.4-27.75,6.08Z"/><path class="cls-11" d="M378.25,882.53c-31.9,2.29-35.73,5.92-13.95,31.13,4.64,5.38,9.53,10.65,14.14,16.37-12.4-6.92-25.7-17-32.55-29.77-3.48-6.58-3.21-14.73,4.3-18.32,8.65-3.91,19.43-2.21,28.06.59Z"/><path class="cls-11" d="M589.73,783.26c4.76-7.65,12-16,21.11-18.49,8.06-2.09,13.51,4,15.08,11.26,3,14.22-.73,30.42-5.79,43.73-.21-10.9.65-21.43.21-32.14-.4-4.89-.5-13.6-4.93-16.38-6.63-2.78-20,8.16-25.68,12Z"/><path class="cls-11" d="M496.53,992c28.34,4.82,59.65.15,78.53-23.26a116.44,116.44,0,0,0,15.28-24.78c-2.38,12.15-7.86,24.26-16.3,33.66C555.16,999.17,522,1003,496.53,992Z"/></g></g><g id="høyrePils"><path class="cls-7" d="M1455,461.83s-74-77.43-104.83-102.45-128.27-102.54-149.35-118-54.51-37.78-62.09-36.44-11,15.58-10.06,16.38-1.5,9.33-17.93,17.08-52.56,17.75-71.59,30.69-21,10.91-52,49S356.39,1091,356.39,1091s-24.65,21.36-19,45.84,13.57,40.24,11.75,46.47-11.45,19.09,3.32,36.37,93.66,96,115.41,113.63,122.23,91,147.2,98.69,28.42,6.45,34.3,2.51c7.12-4.76,21.64-6.24,49.42,1.61,19.14,5.4,64.15-55,64.15-55l632.74-770.87s17-28.4,21.4-52.81,6.26-60.64,13.41-69.44,4.77-10.56,8.22-11.81,2.27,2.89,5.43,1S1458.57,465.56,1455,461.83Z"/><path class="cls-8" d="M1214.81,499.44s89.07-82.42,20.55-100.67-104.51-30.47-126.28-68.57S1063,374.38,995.29,409.54,388.58,1058,393.83,1099.65s13.14,117.83,96.83,92.27,112.51-19.16,119.55-78.07,14.4-241.74,66.33-238.67,277.67-48.67,326.81-125.91S1175.24,525.12,1214.81,499.44Z"/><path class="cls-8" d="M1370.16,573.92s30.73-94.89-16.08-102.09-96.8,24.05-170.94,163S862.08,903.43,811.26,927.38s-147.91,321.43-201.79,315.11-55.13,135.91,17.78,127.71,223-240.88,310.61-274.87S1360.28,630.11,1370.16,573.92Z"/><path class="cls-10" d="M505.76,1278.09l-3.82,4.7-22-17.85a17.09,17.09,0,0,1,6.94-5q4.69-2,13.5-2.87,10.26-.94,14.52-2.56a14.81,14.81,0,0,0,6.39-4.26,9,9,0,0,0,2.22-6.43,8,8,0,0,0-9.26-7.26c-2.34.39-4.55,1.88-6.65,4.45l-3.78-3.92q5.1-5.37,10.3-5.94a13,13,0,0,1,9.88,3.23q5.09,4.13,5,9.61a15.62,15.62,0,0,1-3.6,9.77,18.28,18.28,0,0,1-8,5.63q-4.87,1.82-15.32,3c-4.42.47-7.35.86-8.77,1.17a19.09,19.09,0,0,0-3.89,1.26Z"/><path class="cls-10" d="M522.19,1266.67q8.14-10,15.08-12.94t12.3,1.43a11,11,0,0,1,4.09,10.26q-.78,7.74-9.8,18.85-8.1,10-15,12.9t-12.33-1.43q-4.75-3.85-4.07-10.87T522.19,1266.67Zm4.19,3.37q-7.87,9.7-8.67,14.54c-.52,3.23.21,5.64,2.18,7.25s4.33,1.67,7.4.46,7.2-5,12.4-11.43,8.16-11.33,8.68-14.55-.23-5.65-2.24-7.28q-2.77-2.25-7.36-.43T526.38,1270Z"/><path class="cls-10" d="M1164,317.62l27.09-33.34,14.72,12q4.62,3.75,6.06,6.46a10.22,10.22,0,0,1,1.08,6,11.61,11.61,0,0,1-2.68,6.18,10.49,10.49,0,0,1-7.35,4.17q-4.31.41-9.37-2.67a14.57,14.57,0,0,1,1.31,4.15,30.78,30.78,0,0,1,0,7.05l-1.57,13.79-5.53-4.49,1.21-10.53a55.41,55.41,0,0,0,.56-8.64,9.48,9.48,0,0,0-1-4,12.27,12.27,0,0,0-3-3.28l-5.08-4.13-12,14.8Zm19.53-15.06,9.45,7.68a17.65,17.65,0,0,0,5.19,3.2,7,7,0,0,0,4.11.13,6.7,6.7,0,0,0,3.44-2.3,6.2,6.2,0,0,0,1.42-5.43c-.41-1.94-1.8-3.86-4.15-5.78l-10.5-8.53Z"/><path class="cls-10" d="M1197.56,344.91l27.08-33.33,24,19.51-3.19,3.93-19.62-15.94-8.28,10.19,18.38,14.93-3.2,3.93-18.37-14.93-9.22,11.35,20.39,16.56-3.2,3.94Z"/><path class="cls-10" d="M1237.94,377.72l14.19-43.81,4.76,3.87-11,31.25q-1.29,3.63-2.69,6.87c2-1.41,4.07-2.75,6.2-4L1278.05,355l4.48,3.64-40.07,22.78Z"/><path class="cls-10" d="M1268.7,402.72l11.48-14.12L1283,359l5.37,4.36-1.65,15.36q-.48,4.56-1.19,8.41c2.4-.95,5.21-1.94,8.42-2.95l14.42-4.57,5.08,4.13-28.87,8.43-11.47,14.13Z"/><path class="cls-10" d="M1290.39,420.34,1317.48,387l24,19.51-3.19,3.94-19.62-15.94-8.27,10.18,18.37,14.93-3.2,3.93-18.37-14.92L1298,420l20.39,16.57-3.19,3.93Z"/><path class="cls-10" d="M1321.12,445.3,1348.2,412l4.5,3.66L1348.86,456l21.3-26.23,4.2,3.41-27.08,33.34-4.5-3.66,3.87-40.39-21.31,26.22Z"/></g><g id="TEKST"><g id="BARE_" data-name="BARE "><path class="cls-12" d="M419.17,784.87V541.41h91.12q27.68,0,43.84,7.06a61.62,61.62,0,0,1,26.46,22,56.9,56.9,0,0,1,10.31,33,53.51,53.51,0,0,1-8.89,30.2q-8.88,13.44-25,21.57,21.09,6.33,33.25,21.53t12.16,37.47q0,22.1-11,38.8A63.28,63.28,0,0,1,562,777.31q-18.36,7.56-50.45,7.56Zm32.09-141.16h52.56q20.63,0,29.32-2.32,12.52-3.5,19.3-11.71t6.77-22.34q0-13.11-6.16-21.83a31.4,31.4,0,0,0-16.38-12q-10.2-3.33-36.69-3.33H451.26Zm0,112.43H511.7q20,0,29.51-3Q555,748.83,562.13,739t7.17-24.82q0-13.78-6.87-23.34a39.41,39.41,0,0,0-18.49-13.95q-11.62-4.4-36.49-4.4H451.26Z"/><path class="cls-12" d="M619.75,784.87l93.56-243.46h34.31L847,784.87H810.24L782,711.14H680L653.6,784.87Zm69.6-100H772l-25.21-67.43q-11.7-31.05-17.14-50.48a307.26,307.26,0,0,1-13.29,46.5Z"/><path class="cls-12" d="M872.19,784.87V541.41H979.75q33.69,0,49.74,6.81t26.33,22.65q10.31,15.86,10.29,36.76,0,27.55-17.45,44.65T997.91,674q13.51,6.69,20.58,13.53a173.11,173.11,0,0,1,25.23,31.06l42.37,66.26h-40.36l-32.35-50.62q-18.79-29.7-28.37-40t-18.55-13.89q-9-3.58-25.09-3.58H904.28V784.87Zm32.09-136h69q22.61,0,34.31-4.48a39.61,39.61,0,0,0,18.56-14.12,37.66,37.66,0,0,0,6.86-22.42q0-18.44-13.12-29T981,568.32H904.28Z"/><path class="cls-12" d="M1117.57,784.87V541.41h175.36v28.73H1149.66v74.4h134.19v28.73H1149.66v82.87h148.92v28.73Z"/></g><g id="REVY_2" data-name="REVY 2"><path class="cls-13" d="M419.47,1068.1V824.64H527q33.71,0,49.75,6.8T603.1,854.1q10.29,15.84,10.29,36.76,0,27.54-17.45,44.64t-50.75,21.75q13.51,6.68,20.58,13.53A172.27,172.27,0,0,1,591,1001.84l42.38,66.26H593l-32.35-50.63q-18.81-29.7-28.38-40t-18.54-13.89q-9-3.57-25.1-3.57H451.55V1068.1Zm32.08-136h69q22.59,0,34.3-4.49a39.62,39.62,0,0,0,18.57-14.11,37.68,37.68,0,0,0,6.86-22.42q0-18.44-13.12-29t-38.94-10.55H451.55Z"/><path class="cls-14" d="M664.85,1068.1V824.64H840.21v28.73H696.93v74.4H831.12V956.5H696.93v82.87H845.86v28.73Z"/><path class="cls-15" d="M959.8,1068.1,865.63,824.64h34.71l63.24,176.86q7.27,20.6,12.73,39.86,5.66-20.08,12.93-39.86l65.67-176.86h32.69L992.78,1068.1Z"/><path class="cls-16" d="M1213.39,1068.1V965L1120,824.64h39.21l47.64,73.48q14.12,21.78,24.82,41.23,10.72-19.12,26.49-43.06l47.12-71.65h37.09L1245.48,965V1068.1Z"/></g></g></g></svg>