<svg xmlns="http://www.w3.org/2000/svg" viewBox="0 0 1122.13 1235.79"><defs><style>.cls-1{fill:#c6c4c4;stroke:#231f20;stroke-width:3px;}.cls-1,.cls-3{stroke-miterlimit:10;}.cls-2{fill:#e5e3e3;}.cls-3{fill:#58595b;stroke:#58595b;stroke-width:2px;}</style></defs><g id="Layer_2" data-name="Layer 2"><g id="høyrePils"><path class="cls-1" d="M1119.93,258.49s-74-77.42-104.82-102.44S886.83,53.5,865.75,38,811.25.21,803.66,1.56s-11,15.58-10.06,16.37S792.11,27.27,775.67,35,723.11,52.76,704.08,65.7s-21,10.91-52,49S21.33,887.65,21.33,887.65-3.32,909,2.35,933.49,15.91,973.72,14.1,980s-11.46,19.1,3.31,36.37,93.66,96,115.41,113.64,122.23,91,147.2,98.69,28.43,6.45,34.31,2.51c7.11-4.77,21.63-6.25,49.41,1.6,19.14,5.41,64.15-55,64.15-55l632.75-770.88s17-28.4,21.39-52.8,6.26-60.65,13.41-69.45,4.77-10.55,8.22-11.8,2.27,2.88,5.43,1S1123.51,262.22,1119.93,258.49Z"/><path class="cls-2" d="M879.75,296.1s89.07-82.42,20.55-100.66S795.79,165,774,126.86s-46.11,44.19-113.79,79.35S53.52,854.63,58.77,896.31s13.14,117.83,96.84,92.27,112.51-19.15,119.55-78.06,14.39-241.74,66.32-238.67,277.67-48.68,326.81-125.92S840.18,321.79,879.75,296.1Z"/><path class="cls-2" d="M1035.1,370.59s30.73-94.9-16.07-102.09-96.81,24-170.95,163S527,700.09,476.2,724.05s-147.91,321.43-201.79,315.1-55.13,135.92,17.78,127.72S515.24,926,602.8,892,1025.22,426.77,1035.1,370.59Z"/><path class="cls-3" d="M170.7,1074.76l-3.82,4.69-22-17.84a17,17,0,0,1,6.94-5q4.71-2,13.5-2.87,10.26-.94,14.52-2.57a14.89,14.89,0,0,0,6.39-4.25,8.91,8.91,0,0,0,2.22-6.43,8,8,0,0,0-9.26-7.27c-2.34.4-4.55,1.88-6.65,4.46l-3.78-3.93q5.1-5.37,10.31-5.93a13,13,0,0,1,9.87,3.22q5.09,4.14,5,9.62a15.71,15.71,0,0,1-3.61,9.77,18.26,18.26,0,0,1-8,5.62q-4.87,1.83-15.32,3-6.63.7-8.77,1.18a19.72,19.72,0,0,0-3.89,1.25Z"/><path class="cls-3" d="M187.14,1063.33q8.13-10,15.07-12.94t12.3,1.44a11,11,0,0,1,4.09,10.26q-.78,7.74-9.8,18.84-8.1,10-15,12.91t-12.33-1.43q-4.74-3.86-4.07-10.88T187.14,1063.33Zm4.18,3.38q-7.87,9.69-8.66,14.54c-.53,3.22.2,5.64,2.17,7.25s4.33,1.66,7.4.46,7.2-5,12.41-11.43,8.16-11.34,8.67-14.55-.23-5.65-2.24-7.28q-2.77-2.25-7.35-.43T191.32,1066.71Z"/><path class="cls-3" d="M828.91,114.28,856,81l14.72,12q4.62,3.75,6.06,6.47a10.22,10.22,0,0,1,1.08,6,11.61,11.61,0,0,1-2.68,6.18,10.55,10.55,0,0,1-7.35,4.17q-4.29.39-9.37-2.67a14.11,14.11,0,0,1,1.31,4.14,30.87,30.87,0,0,1,0,7.06l-1.57,13.79-5.52-4.49,1.2-10.53a55.91,55.91,0,0,0,.57-8.64,9.48,9.48,0,0,0-1-4,12.12,12.12,0,0,0-3-3.29l-5.07-4.12-12,14.8Zm19.52-15,9.45,7.68a17.87,17.87,0,0,0,5.19,3.2,7,7,0,0,0,4.12.13,6.63,6.63,0,0,0,3.43-2.31,6.2,6.2,0,0,0,1.43-5.42c-.42-1.94-1.8-3.86-4.16-5.78l-10.5-8.53Z"/><path class="cls-3" d="M862.5,141.58l27.09-33.34,24,19.51-3.2,3.94-19.62-15.94-8.27,10.18,18.37,14.93-3.2,3.94-18.37-14.93-9.22,11.34,20.39,16.57-3.2,3.93Z"/><path class="cls-3" d="M902.89,174.39l14.19-43.81,4.75,3.86-11,31.25q-1.29,3.63-2.69,6.88,3-2.13,6.21-4L943,151.64l4.48,3.63L907.4,178.06Z"/><path class="cls-3" d="M933.65,199.38l11.47-14.12,2.82-29.61,5.37,4.37-1.66,15.36c-.32,3-.72,5.84-1.18,8.4,2.39-.95,5.2-1.93,8.41-2.95l14.43-4.56,5.07,4.12-28.87,8.44L938,203Z"/><path class="cls-3" d="M955.34,217l27.08-33.33,24,19.51-3.2,3.93-19.61-15.94-8.28,10.19,18.37,14.93-3.19,3.93-18.38-14.93-9.22,11.35,20.39,16.57-3.19,3.93Z"/><path class="cls-3" d="M986.06,242l27.08-33.34,4.51,3.66-3.85,40.41,21.31-26.22,4.2,3.41-27.09,33.33-4.5-3.66,3.88-40.39L990.29,245.4Z"/></g></g></svg>