<svg xmlns="http://www.w3.org/2000/svg" viewBox="0 0 404.32 485.44"><defs><style>.cls-1{fill:#fff;stroke:#030202;stroke-miterlimit:10;stroke-width:3px;}.cls-2{fill:#231f20;}</style></defs><g id="Layer_2" data-name="Layer 2"><g id="Layer_7" data-name="Layer 7"><g id="Sad"><path class="cls-1" d="M357,80.87c-51.59,1.75-145.1-26.22-145.1-26.22C107.72,8.53,85.87-3.41,54.9,3.18,32.22,8,41.69,111.75,32.79,145.18S9.61,191.86,2.94,228.45c-6.62,36.37,11.26,141.61,18.72,165s33.38,77.65,97,89.43,141.62-77,174.2-109.09,57.72-85.92,57.9-107.8,9-63.91,36-117.52S408.59,79.12,357,80.87ZM202.82,416c-41.21-60.43-163-54.72-163-54.72S74.64,288.85,151.35,310,202.82,416,202.82,416Z"/><path class="cls-2" d="M53.12,135.06a76.13,76.13,0,0,1,46.09-19c5.58-.32,11.15.54,16.69,1a121.67,121.67,0,0,0,15.51.26c15.74-.78,31.55-4,45.21-12.37-10.19,13.63-28,19.95-44.47,21.83a90.08,90.08,0,0,1-21.27-.2c-2.5-.3-5.25-.63-7.75-.89-17.11-1-34,3.45-50,9.39Z"/><path class="cls-2" d="M332.66,218.5c-10-12.31-21.19-23.9-34.91-31.78-4.57-2.63-9.59-4.47-14.33-6.76a91.86,91.86,0,0,1-14.52-8.9c-13.16-10-25.32-24.55-27.13-41.44,5,9.61,12.1,17.41,20.12,24.36A121.85,121.85,0,0,0,281,167.35a129.81,129.81,0,0,0,12.13,6.11c18.84,8.37,33.34,25.57,39.55,45Z"/><path class="cls-2" d="M104.33,250.41C83.64,259,67.81,275.47,55.87,293.93c-4.18,6.27-7.56,12.84-11.49,19.33A88.9,88.9,0,0,1,57.56,281.6c10.08-15.41,27.85-29.89,46.77-31.19Z"/><path class="cls-2" d="M210.79,277.19c20.47,14.5,29.05,42.74,28.4,66.93a102.73,102.73,0,0,1-4.9,28.74c.53-16,.5-31.64-2.39-47.29-3.32-17.39-9.88-34.52-21.11-48.38Z"/><path class="cls-2" d="M124.14,262.46c8.85-.62,17.91.33,25.68,5.19,3.06,2,5.76,5.63,5.58,9.66l-4.07-3.55c10.87-1.91,32.71-3.21,39.16,7.66a8.77,8.77,0,0,1,.78,2.68,9.14,9.14,0,0,0-3.77-3.33,17.35,17.35,0,0,0-4.65-1.45c-9.94-1.47-20.4,0-30.31,1.26l-4.43.68.37-4.23a3.36,3.36,0,0,0-.5-2c-1.79-2.9-5.17-4.58-8.4-6.26-5-2.39-10.22-4.28-15.44-6.26Z"/><path class="cls-2" d="M63.33,387.43c36.12-7.69,82,3.14,106.12,32.34-31.51-21.62-68.51-29.66-106.12-32.34Z"/><path class="cls-2" d="M41.86,179.91s16.92-13.2,58.06-.81,66.09-22.91,68.29-28.2c0,0-13.22,5.51-49.67,1.61S52.59,160.61,41.86,179.91Z"/><path class="cls-2" d="M315.86,261.84s-7.46-20.12-49-31.2-44.2-54.21-43.29-59.87c0,0,8.35,11.64,41.42,27.47S316.87,239.79,315.86,261.84Z"/></g></g></g></svg>