<svg viewBox="0 0 936.24 535.68" xmlns="http://www.w3.org/2000/svg"><g stroke-miterlimit="10" stroke-width="9" transform="translate(-25.73 -48.35)"><g fill="#231f20" stroke="#231f20"><path d="m30.23 296.31v-243.46h91.12q27.68 0 43.84 7a61.71 61.71 0 0 1 26.46 22 56.9 56.9 0 0 1 10.31 33 53.58 53.58 0 0 1 -8.88 30.2q-8.9 13.44-25 21.57 21.1 6.31 33.25 21.52t12.16 37.48q0 22.09-11 38.8a63.28 63.28 0 0 1 -29.36 24.26q-18.36 7.56-50.45 7.56zm32.09-141.16h52.56q20.63 0 29.32-2.32 12.53-3.5 19.3-11.71t6.78-22.34q0-13.11-6.17-21.84a31.53 31.53 0 0 0 -16.37-12q-10.22-3.32-36.7-3.32h-48.72zm0 112.43h60.44q20 0 29.51-3 13.74-4.32 20.92-14.2t7.18-24.83q0-13.77-6.88-23.33a39.41 39.41 0 0 0 -18.49-13.94q-11.62-4.4-36.49-4.4h-56.19z"/><path d="m230.81 296.31 93.56-243.46h34.32l99.31 243.46h-36.7l-28.22-73.73h-102.08l-26.37 73.73zm69.6-100h82.64l-25.22-67.43q-11.7-31.05-17.14-50.48a307.26 307.26 0 0 1 -13.29 46.5z"/><path d="m483.25 296.31v-243.46h107.56q33.69 0 49.74 6.81t26.33 22.65q10.3 15.85 10.3 36.76 0 27.56-17.46 44.65t-50.72 21.74q13.51 6.69 20.58 13.53a173.11 173.11 0 0 1 25.23 31.06l42.37 66.26h-40.39l-32.34-50.62q-18.81-29.72-28.38-40t-18.54-13.89q-9-3.59-25.1-3.58h-37.09v108.09zm32.09-136h69q22.6 0 34.31-4.48a39.56 39.56 0 0 0 18.56-14.12 37.66 37.66 0 0 0 6.86-22.42q0-18.44-13.11-29t-38.96-10.53h-76.66z"/><path d="m728.63 296.31v-243.46h175.37v28.73h-143.28v74.42h134.19v28.73h-134.19v82.87h148.92v28.73z"/></g><path d="m30.53 579.54v-243.46h107.56q33.69 0 49.74 6.8t26.33 22.66q10.29 15.84 10.29 36.76 0 27.54-17.45 44.64t-50.75 21.74q13.51 6.69 20.58 13.54a172.55 172.55 0 0 1 25.22 31l42.38 66.27h-40.36l-32.35-50.63q-18.79-29.7-28.37-40t-18.55-13.86q-9-3.57-25.1-3.58h-37.08v108.12zm32.09-136h69q22.59 0 34.3-4.48a39.57 39.57 0 0 0 18.57-14.12 37.65 37.65 0 0 0 6.86-22.41q0-18.43-13.12-29t-38.93-10.53h-76.68z" fill="#01529d" stroke="#01529d"/><path d="m275.91 579.54v-243.46h175.36v28.73h-143.27v74.4h134.2v28.73h-134.2v82.87h148.92v28.73z" fill="#418940" stroke="#418940"/><path d="m570.87 579.54-94.18-243.46h34.71l63.25 176.86q7.27 20.59 12.72 39.86 5.67-20.1 12.94-39.86l65.69-176.86h32.7l-94.86 243.46z" fill="#7f7f7f" stroke="#7f7f7f"/><path d="m824.45 579.54v-103.13l-93.45-140.33h39.21l47.64 73.48q14.13 21.78 24.82 41.23 10.72-19.12 26.49-43.06l47.12-71.65h37.1l-96.84 140.33v103.13z" fill="#d64563" stroke="#d64563"/></g></svg>