<svg xmlns="http://www.w3.org/2000/svg" viewBox="0 0 1122.13 1235.79"><defs><style>.cls-1{fill:#c6c4c4;stroke:#231f20;stroke-width:3px;}.cls-1,.cls-4{stroke-miterlimit:10;}.cls-2{fill:#e5e3e3;}.cls-3{fill:#8c8b8b;}.cls-4{fill:#58595b;stroke:#58595b;stroke-width:2px;}</style></defs><g id="Layer_2" data-name="Layer 2"><g id="venstrePils"><g id="Øl_1" data-name="Øl 1"><path class="cls-1" d="M2.2,258.49s74-77.42,104.82-102.44S235.3,53.5,256.38,38,310.88.21,318.47,1.56s11,15.58,10,16.37S330,27.27,346.45,35,399,52.76,418.05,65.7s21,10.91,52,49S1100.8,887.65,1100.8,887.65s24.65,21.35,19,45.84S1106.21,973.72,1108,980s11.46,19.1-3.32,36.37-93.65,96-115.41,113.64-122.22,91-147.2,98.69-28.42,6.45-34.3,2.51c-7.12-4.77-21.63-6.25-49.41,1.6-19.14,5.41-64.16-55-64.16-55L61.49,406.89s-17-28.4-21.4-52.8-6.25-60.65-13.4-69.45-4.77-10.55-8.22-11.8-2.28,2.88-5.44,1S-1.39,262.22,2.2,258.49Z"/><path class="cls-2" d="M242.37,296.1s-89.07-82.42-20.55-100.66S326.33,165,348.11,126.86s46.1,44.19,113.79,79.35,606.71,648.42,601.45,690.1-13.13,117.83-96.83,92.27S854,969.43,847,910.52s-14.39-241.74-66.33-238.67S503,623.17,453.84,545.93,281.94,321.79,242.37,296.1Z"/><path class="cls-2" d="M87,370.59S56.29,275.69,103.1,268.5s96.81,24,171,163S595.11,700.09,645.93,724.05s147.91,321.43,201.78,315.1,55.14,135.92-17.77,127.72S606.88,926,519.32,892,96.9,426.77,87,370.59Z"/><path class="cls-3" d="M802.68,1198.39c58-26.1,113.19-58.74,163.38-97.77,35.19-27.57,67.84-59.1,94.92-94.74,3.2-4.17,6.77-9.4,9.92-13.63,2.5-3.65,6.93-10.42,9.39-14-3.27,5.85-7.7,14-11.31,19.51-36.14,57.64-88.55,103.62-145.29,140.37-38.08,24.2-78.4,45.3-121,60.29Z"/><path class="cls-3" d="M31.38,261.47c47-55.75,101.55-105.26,158.67-150.43,26.86-21.13,55.68-41.64,84.45-60.2,5.53-3.71,13.82-8.73,19.56-12.19,4.87-2.95,14.85-8.93,19.77-11.82-8.38,6-19.87,13.92-28.33,19.74C194.89,110.7,109.31,182.36,31.38,261.47Z"/></g><path class="cls-4" d="M110.83,264.62l-27.3-33.15,4.36-3.6,11.22,13.62,17.17-14.15-11.21-13.61,4.37-3.6,27.3,33.15-4.36,3.6L119.5,231.25,102.33,245.4,115.2,261Z"/><path class="cls-4" d="M153.45,229.52l-11.57-14-28.46-8.63,5.34-4.4,14.73,4.66c2.91.92,5.58,1.87,8,2.83-.45-2.53-.86-5.48-1.22-8.83l-1.62-15,5-4.16,2.55,30,11.57,14Z"/><path class="cls-4" d="M174.77,212l-27.3-33.15,12.41-10.22a19.68,19.68,0,0,1,6.76-4,10.81,10.81,0,0,1,6.07,0,10,10,0,0,1,5.1,3.34,9.47,9.47,0,0,1,2.18,5.11,11.13,11.13,0,0,1-1,5.74,11.53,11.53,0,0,1,6.94-.8,10.24,10.24,0,0,1,5.86,3.74,12.13,12.13,0,0,1,2.86,6.52,11.15,11.15,0,0,1-1.28,6.59,24,24,0,0,1-6,6.69Zm-11.46-22.82,7.16-5.9a22.79,22.79,0,0,0,3.73-3.6,6.52,6.52,0,0,0,1.31-3.76,6,6,0,0,0-1.58-3.8,6.53,6.53,0,0,0-3.29-2.29,5.57,5.57,0,0,0-3.58.2,24.17,24.17,0,0,0-5.37,3.66l-6.63,5.47Zm12.61,15.31,8.23-6.78a18.53,18.53,0,0,0,3.68-3.72,6.93,6.93,0,0,0,1.26-4.28,7.24,7.24,0,0,0-1.81-4.18,6.78,6.78,0,0,0-3.55-2.41,7,7,0,0,0-4.08.17,19.58,19.58,0,0,0-5.47,3.5l-7.65,6.3Z"/><path class="cls-4" d="M205.69,186.5l-27.31-33.16L193,141.28c3.05-2.52,5.57-4.07,7.53-4.65a10.28,10.28,0,0,1,6.13.13,11.6,11.6,0,0,1,5.52,3.85,10.52,10.52,0,0,1,2.63,8q-.45,4.29-4.47,8.65a14.35,14.35,0,0,1,4.32-.46,30,30,0,0,1,6.92,1.4l13.2,4.27L229.32,167l-10.09-3.26a54.89,54.89,0,0,0-8.35-2.27,9.36,9.36,0,0,0-4.08.19A12.15,12.15,0,0,0,203,164l-5,4.16,12.13,14.72ZM194.8,164.38l9.4-7.74a17.9,17.9,0,0,0,4.17-4.46,7,7,0,0,0,.94-4,6.64,6.64,0,0,0-1.58-3.82,6.2,6.2,0,0,0-5-2.47q-3,0-6.48,2.93l-10.44,8.6Z"/><path class="cls-4" d="M239.84,158.36l-27.3-33.15,4.36-3.6,27.31,33.15Z"/><path class="cls-4" d="M251.74,148.56l-27.31-33.15L235.84,106a33.32,33.32,0,0,1,6.93-4.69,14.53,14.53,0,0,1,7.38-1.22,18.55,18.55,0,0,1,7.67,2.59,28.46,28.46,0,0,1,7.43,6.61,26.85,26.85,0,0,1,5.86,11.21,15.87,15.87,0,0,1-.57,9.8q-1.79,4.23-6.88,8.42Zm1.15-7.51,7-5.79q4.26-3.51,5.52-6.46a9.83,9.83,0,0,0,.35-6.46,24.65,24.65,0,0,0-5.08-9.36q-4.15-5.06-8.19-6.56a10.79,10.79,0,0,0-7.45-.34A22.53,22.53,0,0,0,239,110L232,115.73Z"/><path class="cls-4" d="M281.53,124,267,80.39l4.67-3.85,40.84,22-5,4.11-12.11-6.87-13.89,11.45,4.67,13Zm-1.74-21.42L291,93.34l-11-6.35q-5.08-2.92-8-4.95a54.34,54.34,0,0,1,3.41,7.82Z"/><path class="cls-4" d="M943.94,1089l3.75,5L925,1111a18.15,18.15,0,0,1-3.29-8.18q-.93-5.19.28-14.1,1.43-10.4.81-15a15.76,15.76,0,0,0-2.72-7.45,9.44,9.44,0,0,0-5.83-3.89,7.48,7.48,0,0,0-6.14,1.39,7.56,7.56,0,0,0-3.16,5.82q-.22,3.62,2.86,7.75L903.1,1080q-4.12-6.46-3.48-11.76a12.8,12.8,0,0,1,5.46-8.9c3.49-2.61,7-3.39,10.62-2.34a16.57,16.57,0,0,1,8.81,6.16,19.43,19.43,0,0,1,3.71,9.36q.67,5.29-.58,15.92c-.55,4.49-.84,7.49-.86,9a19.83,19.83,0,0,0,.34,4.18Z"/><path class="cls-4" d="M970.57,1069.07l3.75,5-22.66,17a18,18,0,0,1-3.29-8.17q-.93-5.19.28-14.1,1.43-10.39.81-15a15.65,15.65,0,0,0-2.73-7.45,9.4,9.4,0,0,0-5.82-3.9,7.84,7.84,0,0,0-9.3,7.21q-.23,3.63,2.86,7.75l-4.75,2.69q-4.11-6.45-3.48-11.75a12.82,12.82,0,0,1,5.46-8.9c3.5-2.61,7-3.4,10.63-2.34a16.59,16.59,0,0,1,8.81,6.15,19.5,19.5,0,0,1,3.71,9.37q.67,5.3-.58,15.92-.84,6.74-.87,9a19.72,19.72,0,0,0,.35,4.17Z"/></g></g></svg>