<svg xmlns="http://www.w3.org/2000/svg" viewBox="0 0 456.09 509.3"><defs><style>.cls-1{fill:#fff;stroke:#030202;stroke-miterlimit:10;stroke-width:3px;}.cls-2{fill:#030202;}</style></defs><g id="Layer_2" data-name="Layer 2"><g id="VenstreSmile"><g id="Smile"><path class="cls-1" d="M443.94,200.78C422.63,167.76,375.88,66,369.17,42.2s-9.54-67.49-68.92-18.27S159,123.8,86.16,125.41-6.51,145,4.21,158.84c0,0,51.89,64.67,57.29,89.8S97.69,359.4,144.2,403.06s105,87.13,147.36,98.87,135.1,12.71,146.71-64.13S465.26,233.79,443.94,200.78ZM360.13,431.49c-62.14,21.43-93.95,14.94-169.71-58.91,0,0,130.56,2.13,213.19-94.85C403.61,277.73,422.27,410.06,360.13,431.49Z"/><path class="cls-2" d="M112,290.65s38.23-42.36,115.09-24.13C227.07,266.52,152.56,173.83,112,290.65Z"/><path class="cls-2" d="M294.27,238.88s11-56,86.25-79.95C380.52,158.93,268.92,117.83,294.27,238.88Z"/><path class="cls-2" d="M90.5,216.75c13.61-18,34.54-31.1,57.35-33.41a56.2,56.2,0,0,1,41.93,13.27,59.73,59.73,0,0,1,10.58,11.76,138.51,138.51,0,0,0-13.08-8.11C154,181.6,119.56,197.65,90.5,216.75Z"/><path class="cls-2" d="M265.9,180.85c-1.36-37.47,23.33-79.28,64.69-78a60.32,60.32,0,0,1,15.61,2.52,138.43,138.43,0,0,0-15.27,1.89c-37.61,6.34-54.39,40.45-65,73.55Z"/><path class="cls-2" d="M253.81,332.61c7.27-7.64,16.75-13.36,27.51-14.44a20.37,20.37,0,0,1,12,2.51l-6.61,2.59c4.72-15.64,20.69-28.65,37.17-21.39-10.78,1.05-19.06,6-24.48,15.26a45.39,45.39,0,0,0-3.73,7.64c-.27.61-1.88,5.73-2.13,6.47-2.81-1.63-6.54-4.38-9.93-4.55a19.61,19.61,0,0,0-2-.17c-9.37-.07-18.68,3.4-27.75,6.08Z"/><path class="cls-2" d="M183.73,355.4c-31.91,2.29-35.74,5.92-13.95,31.13,4.64,5.38,9.53,10.65,14.14,16.37-12.4-6.92-25.7-17-32.56-29.77-3.47-6.58-3.2-14.73,4.31-18.32,8.65-3.91,19.43-2.21,28.06.59Z"/><path class="cls-2" d="M395.21,256.13c4.76-7.65,12-16,21.11-18.49,8.06-2.09,13.51,4,15.08,11.26,3,14.22-.74,30.42-5.79,43.73-.21-10.9.65-21.43.2-32.14-.39-4.89-.5-13.6-4.93-16.38-6.62-2.78-20,8.16-25.67,12Z"/><path class="cls-2" d="M302,464.82c28.35,4.82,59.66.15,78.53-23.26a116.07,116.07,0,0,0,15.29-24.78c-2.38,12.15-7.86,24.26-16.3,33.66-18.88,21.6-52.07,25.4-77.52,14.38Z"/></g></g></g></svg>